<svg xmlns="http://www.w3.org/2000/svg" width="300.000000pt" height="50.000000pt" viewBox="0 0 280.000000 40.000000">
<g fill="#61DAFB" transform="translate(0.000000,50.000000) scale(0.1, -0.1)">
<path d="M210 400 c0 -20 5 -21 99 -19 54 1 104 -2 110 -5 15 -9 14 -49 -1
-64 -8 -8 -47 -12 -110 -12 -80 0 -98 -3 -98 -15 0 -12 18 -15 101 -15 114 0
139 -9 139 -48 0 -53 -10 -57 -130 -57 -98 0 -110 -2 -110 -17 0 -16 12 -18
109 -18 94 0 112 3 135 21 21 16 26 29 26 64 0 26 -6 50 -15 59 -13 12 -14 20
-5 37 14 26 6 63 -20 89 -17 17 -34 20 -125 20 -99 0 -105 -1 -105 -20z"/>
<path d="M551 394 l-31 -26 0 -119 c0 -99 3 -119 15 -119 12 0 15 14 15 70 l0
70 106 0 106 0 -4 -70 c-3 -61 -1 -70 15 -70 15 0 17 12 17 116 0 114 0 116
-29 145 -27 27 -35 29 -104 29 -67 0 -79 -3 -106 -26z m196 -30 c7 -10 13 -28
13 -41 0 -23 -2 -23 -105 -23 -103 0 -105 0 -105 23 0 25 18 53 37 58 7 2 43
3 80 2 51 -1 70 -6 80 -19z"/>
<path d="M855 395 c-23 -22 -25 -32 -25 -113 0 -49 -3 -104 -6 -121 -6 -27 -4
-31 15 -31 19 0 21 5 21 70 l0 70 83 0 c103 0 117 -11 117 -88 0 -45 3 -52 20
-52 17 0 20 7 20 48 0 26 -7 59 -14 75 -13 23 -13 31 0 55 7 15 14 46 14 70
l0 42 -110 0 c-104 0 -112 -1 -135 -25z m205 -40 c0 -48 -15 -55 -112 -55
l-88 0 0 29 c0 44 25 56 119 56 l81 0 0 -30z"/>
<path d="M1240 400 c0 -20 5 -20 137 -18 122 3 138 5 141 21 3 15 -9 17 -137
17 -135 0 -141 -1 -141 -20z"/>
<path d="M1581 394 l-31 -26 0 -119 c0 -99 3 -119 15 -119 12 0 15 14 15 70
l0 70 85 0 c73 0 88 -3 106 -21 18 -18 20 -30 17 -70 -4 -43 -3 -49 13 -49 16
0 19 8 19 57 0 38 -5 62 -16 74 -15 16 -15 20 0 41 9 13 16 43 16 70 l0 48
-104 0 c-98 0 -106 -2 -135 -26z m207 -36 c5 -46 -19 -58 -119 -58 -88 0 -89
0 -89 25 0 47 26 60 120 60 84 -1 85 -1 88 -27z"/>
<path d="M1855 275 c0 -131 2 -145 18 -145 15 0 17 14 17 145 0 131 -2 145
-17 145 -16 0 -18 -14 -18 -145z"/>
<path d="M1967 409 c-32 -19 -45 -69 -46 -176 l-1 -103 141 0 c126 0 140 2
137 17 -3 15 -17 16 -120 14 l-118 -2 0 55 0 56 120 0 c100 0 120 3 120 15 0
13 -20 15 -120 15 l-120 0 0 29 c0 45 19 53 132 54 89 2 103 4 106 20 3 15 -7
17 -105 17 -59 0 -116 -5 -126 -11z"/>
<path d="M2230 275 c0 -131 2 -145 18 -145 15 0 17 10 14 93 -7 169 -11 168
102 29 133 -165 136 -164 136 23 0 121 -2 145 -15 145 -12 0 -15 -22 -17 -120
l-3 -121 -98 121 c-65 80 -104 120 -117 120 -19 0 -20 -7 -20 -145z"/>
<path d="M2540 275 l0 -145 104 0 c96 0 107 2 133 24 27 23 28 27 28 121 0 94
-1 98 -28 121 -26 22 -37 24 -133 24 l-104 0 0 -145z m216 94 c10 -8 14 -36
14 -95 0 -105 -9 -114 -122 -114 l-78 0 0 113 0 112 86 -2 c47 -1 92 -8 100
-14z"/>
<path d="M1274 277 c-23 -20 -28 -34 -32 -85 -4 -58 -3 -62 17 -62 19 0 21 6
21 53 0 79 13 87 138 87 84 0 102 3 102 15 0 12 -19 15 -109 15 -101 0 -112
-2 -137 -23z"/>
</g>
</svg>