<svg xmlns="http://www.w3.org/2000/svg" width="180.000000pt" height="180.000000pt" viewBox="0 0 150.000000 150.000000">
<g fill="#61DAFB" transform="translate(-75.00000,180.000000) scale(0.1, -0.1)">
<path d="M1115 1540 c-42 -42 -46 -51 -35 -65 12 -14 17 -12 52 22 l38 37 198
-197 198 -198 110 118 111 118 -197 -3 -197 -4 -108 111 c-60 61 -111 111
-114 111 -4 0 -29 -22 -56 -50z m568 -207 c7 -11 -101 -133 -117 -133 -15 0
-138 124 -131 132 10 9 243 10 248 1z"/>
<path d="M1353 1203 l177 -178 0 -223 0 -223 -77 2 -77 2 0 -29 0 -29 187 -3
187 -2 0 32 0 33 -76 0 -75 0 1 220 1 220 169 170 c94 94 170 173 170 177 0 3
-18 5 -40 5 -38 -2 -49 -11 -187 -149 -81 -82 -147 -148 -149 -148 -1 0 -66
65 -145 144 -139 140 -146 145 -194 151 l-50 6 178 -178z"/>
</g>
</svg>